<svg width="195" height="23" viewBox="0 0 195 23" fill="none" xmlns="http://www.w3.org/2000/svg">
<path d="M82.7809 6.9001C82.7809 6.9001 82.566 5.31436 81.9043 4.61807C81.0664 3.70166 80.1297 3.69717 79.7 3.64326C76.6234 3.40967 72.0043 3.40967 72.0043 3.40967H71.9957C71.9957 3.40967 67.3766 3.40967 64.3 3.64326C63.8703 3.69717 62.9336 3.70166 62.0957 4.61807C61.434 5.31436 61.2234 6.9001 61.2234 6.9001C61.2234 6.9001 61 8.76436 61 10.6241V12.3671C61 14.2269 61.2191 16.0911 61.2191 16.0911C61.2191 16.0911 61.434 17.6769 62.0914 18.3731C62.9293 19.2896 64.0293 19.2581 64.5191 19.3569C66.2809 19.5321 72 19.586 72 19.586C72 19.586 76.6234 19.5771 79.7 19.3479C80.1297 19.294 81.0664 19.2896 81.9043 18.3731C82.566 17.6769 82.7809 16.0911 82.7809 16.0911C82.7809 16.0911 83 14.2313 83 12.3671V10.6241C83 8.76436 82.7809 6.9001 82.7809 6.9001ZM69.727 14.4829V8.01865L75.6695 11.262L69.727 14.4829Z" fill="#0078FF"/>
<g clip-path="url(#clip0_2_488)">
<path d="M120.223 0H99.7719C98.7922 0 98 0.741211 98 1.65762V21.3379C98 22.2543 98.7922 23 99.7719 23H120.223C121.203 23 122 22.2543 122 21.3424V1.65762C122 0.741211 121.203 0 120.223 0ZM105.12 19.5994H101.558V8.62051H105.12V19.5994ZM103.339 7.12461C102.195 7.12461 101.272 6.23965 101.272 5.14805C101.272 4.05645 102.195 3.17148 103.339 3.17148C104.478 3.17148 105.402 4.05645 105.402 5.14805C105.402 6.23516 104.478 7.12461 103.339 7.12461ZM118.452 19.5994H114.894V14.2627C114.894 12.9914 114.87 11.3518 113.042 11.3518C111.191 11.3518 110.909 12.7398 110.909 14.1729V19.5994H107.356V8.62051H110.769V10.1209H110.816C111.289 9.2584 112.452 8.34648 114.181 8.34648C117.786 8.34648 118.452 10.6195 118.452 13.5754V19.5994Z" fill="#0078FF"/>
</g>
<g clip-path="url(#clip1_2_488)">
<path d="M149 2.0709C152.206 2.0709 152.586 2.08437 153.847 2.13828C155.019 2.1877 155.652 2.37637 156.073 2.53359C156.631 2.74023 157.034 2.9918 157.452 3.3916C157.873 3.7959 158.131 4.17773 158.347 4.7123C158.511 5.1166 158.708 5.72754 158.759 6.84609C158.816 8.05898 158.83 8.42285 158.83 11.491C158.83 14.5637 158.816 14.9275 158.759 16.1359C158.708 17.259 158.511 17.8654 158.347 18.2697C158.131 18.8043 157.869 19.1906 157.452 19.5904C157.03 19.9947 156.631 20.2418 156.073 20.4484C155.652 20.6057 155.014 20.7943 153.847 20.8438C152.581 20.8977 152.202 20.9111 149 20.9111C145.794 20.9111 145.414 20.8977 144.153 20.8438C142.981 20.7943 142.348 20.6057 141.927 20.4484C141.369 20.2418 140.966 19.9902 140.548 19.5904C140.127 19.1861 139.869 18.8043 139.653 18.2697C139.489 17.8654 139.292 17.2545 139.241 16.1359C139.184 14.923 139.17 14.5592 139.17 11.491C139.17 8.41836 139.184 8.05449 139.241 6.84609C139.292 5.72305 139.489 5.1166 139.653 4.7123C139.869 4.17773 140.131 3.79141 140.548 3.3916C140.97 2.9873 141.369 2.74023 141.927 2.53359C142.348 2.37637 142.986 2.1877 144.153 2.13828C145.414 2.08437 145.794 2.0709 149 2.0709ZM149 0C145.742 0 145.334 0.0134766 144.055 0.0673828C142.78 0.121289 141.903 0.318945 141.144 0.601953C140.352 0.898437 139.681 1.28926 139.016 1.93164C138.345 2.56953 137.938 3.21191 137.628 3.9666C137.333 4.69883 137.127 5.53437 137.07 6.75625C137.014 7.98711 137 8.37793 137 11.5C137 14.6221 137.014 15.0129 137.07 16.2393C137.127 17.4611 137.333 18.3012 137.628 19.0289C137.938 19.7881 138.345 20.4305 139.016 21.0684C139.681 21.7062 140.352 22.1016 141.139 22.3936C141.903 22.6766 142.775 22.8742 144.05 22.9281C145.33 22.982 145.738 22.9955 148.995 22.9955C152.253 22.9955 152.661 22.982 153.941 22.9281C155.216 22.8742 156.092 22.6766 156.852 22.3936C157.639 22.1016 158.309 21.7062 158.975 21.0684C159.641 20.4305 160.053 19.7881 160.358 19.0334C160.653 18.3012 160.859 17.4656 160.916 16.2437C160.972 15.0174 160.986 14.6266 160.986 11.5045C160.986 8.38242 160.972 7.9916 160.916 6.76523C160.859 5.54336 160.653 4.70332 160.358 3.97559C160.062 3.21191 159.655 2.56953 158.984 1.93164C158.319 1.29375 157.648 0.898438 156.861 0.606445C156.097 0.323437 155.225 0.125781 153.95 0.071875C152.666 0.0134766 152.258 0 149 0Z" fill="#0078FF"/>
<path d="M149 5.59277C145.597 5.59277 142.836 8.23867 142.836 11.5C142.836 14.7613 145.597 17.4072 149 17.4072C152.403 17.4072 155.164 14.7613 155.164 11.5C155.164 8.23867 152.403 5.59277 149 5.59277ZM149 15.3318C146.792 15.3318 145.002 13.6158 145.002 11.5C145.002 9.38418 146.792 7.66816 149 7.66816C151.208 7.66816 152.998 9.38418 152.998 11.5C152.998 13.6158 151.208 15.3318 149 15.3318Z" fill="#0078FF"/>
<path d="M156.847 5.35908C156.847 6.12276 156.2 6.73819 155.408 6.73819C154.611 6.73819 153.969 6.11826 153.969 5.35908C153.969 4.59541 154.616 3.97998 155.408 3.97998C156.2 3.97998 156.847 4.5999 156.847 5.35908Z" fill="#0078FF"/>
</g>
<g clip-path="url(#clip2_2_488)">
<path fill-rule="evenodd" clip-rule="evenodd" d="M195 11.5C195 17.8513 189.947 23 183.714 23C177.48 23 172.427 17.8513 172.427 11.5C172.427 5.14873 177.48 0 183.714 0C189.947 0 195 5.14873 195 11.5ZM184.118 8.48981C183.02 8.95505 180.826 9.91798 177.536 11.3786C177.002 11.5951 176.722 11.8069 176.696 12.014C176.653 12.3639 177.083 12.5017 177.669 12.6894C177.749 12.7149 177.831 12.7414 177.916 12.7694C178.492 12.9603 179.267 13.1836 179.67 13.1924C180.036 13.2005 180.444 13.0469 180.894 12.7318C183.969 10.6174 185.555 9.54865 185.655 9.52561C185.725 9.50936 185.823 9.48892 185.889 9.54869C185.955 9.60845 185.948 9.72164 185.941 9.752C185.899 9.93709 184.21 11.5365 183.336 12.3642C183.064 12.6222 182.871 12.8053 182.831 12.8471C182.743 12.9407 182.653 13.0293 182.566 13.1144C182.031 13.6403 181.629 14.0346 182.588 14.6786C183.049 14.9881 183.418 15.244 183.786 15.4993C184.188 15.7781 184.588 16.0562 185.107 16.4025C185.239 16.4908 185.365 16.5824 185.488 16.6717C185.956 17.0114 186.376 17.3165 186.895 17.2679C187.197 17.2396 187.508 16.9506 187.666 16.0888C188.04 14.0522 188.775 9.63935 188.945 7.82093C188.96 7.66162 188.941 7.45772 188.926 7.36822C188.911 7.27871 188.88 7.15119 188.765 7.05678C188.63 6.94498 188.422 6.9214 188.328 6.92308C187.904 6.9307 187.252 7.16145 184.118 8.48981Z" fill="#0078FF"/>
</g>
<path d="M16.5387 2H19.7589L12.7238 10.8954L21 23H14.5198L9.44431 15.6586L3.63677 23H0.414685L7.93937 13.4854L0 2H6.64469L11.2325 8.71031L16.5387 2ZM15.4086 20.8677H17.1929L5.67515 4.02031H3.7604L15.4086 20.8677Z" fill="#0078FF"/>
<path d="M42.0871 22.9999V12.5085H46.2147L46.8327 8.41987H42.0871V5.80939C42.0871 4.62566 42.4724 3.81888 44.4623 3.81888L47 3.81793V0.161107C45.7717 0.0502179 44.5372 -0.00350502 43.3021 0.000177149C39.6432 0.000177149 37.1383 1.90551 37.1383 5.40472V8.42H33V12.5086H37.1382V23L42.0871 22.9999Z" fill="#0078FF"/>
<defs>
<clipPath id="clip0_2_488">
<rect width="24" height="23" fill="white" transform="translate(98)"/>
</clipPath>
<clipPath id="clip1_2_488">
<rect width="24" height="23" fill="white" transform="translate(137)"/>
</clipPath>
<clipPath id="clip2_2_488">
<rect width="22.5729" height="23" fill="white" transform="translate(172.427)"/>
</clipPath>
</defs>
</svg>
