<svg width="25" height="25" viewBox="0 0 25 25" fill="none" xmlns="http://www.w3.org/2000/svg">
<path d="M9.375 1.5625H6.25C5.38721 1.5625 4.6875 2.26221 4.6875 3.125V6.25C4.6875 7.11279 5.38721 7.8125 6.25 7.8125H9.375C10.2378 7.8125 10.9375 7.11279 10.9375 6.25V3.125C10.9375 2.26221 10.2378 1.5625 9.375 1.5625ZM9.375 9.375H6.25C5.38721 9.375 4.6875 10.0747 4.6875 10.9375V14.0625C4.6875 14.9253 5.38721 15.625 6.25 15.625H9.375C10.2378 15.625 10.9375 14.9253 10.9375 14.0625V10.9375C10.9375 10.0747 10.2378 9.375 9.375 9.375ZM9.375 17.1875H6.25C5.38721 17.1875 4.6875 17.8872 4.6875 18.75V21.875C4.6875 22.7378 5.38721 23.4375 6.25 23.4375H9.375C10.2378 23.4375 10.9375 22.7378 10.9375 21.875V18.75C10.9375 17.8872 10.2378 17.1875 9.375 17.1875ZM18.75 1.5625H15.625C14.7622 1.5625 14.0625 2.26221 14.0625 3.125V6.25C14.0625 7.11279 14.7622 7.8125 15.625 7.8125H18.75C19.6128 7.8125 20.3125 7.11279 20.3125 6.25V3.125C20.3125 2.26221 19.6128 1.5625 18.75 1.5625ZM18.75 9.375H15.625C14.7622 9.375 14.0625 10.0747 14.0625 10.9375V14.0625C14.0625 14.9253 14.7622 15.625 15.625 15.625H18.75C19.6128 15.625 20.3125 14.9253 20.3125 14.0625V10.9375C20.3125 10.0747 19.6128 9.375 18.75 9.375ZM18.75 17.1875H15.625C14.7622 17.1875 14.0625 17.8872 14.0625 18.75V21.875C14.0625 22.7378 14.7622 23.4375 15.625 23.4375H18.75C19.6128 23.4375 20.3125 22.7378 20.3125 21.875V18.75C20.3125 17.8872 19.6128 17.1875 18.75 17.1875Z" fill="black"/>
</svg>
